<svg width="28" height="28" viewBox="0 0 28 28" fill="none" xmlns="http://www.w3.org/2000/svg">
<g clip-path="url(#clip0_3_222)">
<path d="M14 25.6667C7.55648 25.6667 2.33331 20.4435 2.33331 14C2.33331 7.5565 7.55648 2.33333 14 2.33333C20.4435 2.33333 25.6666 7.5565 25.6666 14C25.6666 20.4435 20.4435 25.6667 14 25.6667ZM14 23.3333C16.4753 23.3333 18.8493 22.35 20.5996 20.5997C22.35 18.8493 23.3333 16.4753 23.3333 14C23.3333 11.5246 22.35 9.15067 20.5996 7.40033C18.8493 5.64999 16.4753 4.66666 14 4.66666C11.5246 4.66666 9.15066 5.64999 7.40032 7.40033C5.64998 9.15067 4.66665 11.5246 4.66665 14C4.66665 16.4753 5.64998 18.8493 7.40032 20.5997C9.15066 22.35 11.5246 23.3333 14 23.3333ZM8.16665 15.1667H18.6666V17.5H14V21L8.16665 15.1667ZM14 10.5V6.99999L19.8333 12.8333H9.33331V10.5H14Z" fill="#7A7A7A"/>
</g>
<defs>
<clipPath id="clip0_3_222">
<rect width="28" height="28" fill="white"/>
</clipPath>
</defs>
</svg>
