<svg width="28" height="28" viewBox="0 0 28 28" fill="none" xmlns="http://www.w3.org/2000/svg">
<g clip-path="url(#clip0_3_258)">
<path d="M5.83335 25.6667C5.52393 25.6667 5.22719 25.5437 5.0084 25.325C4.7896 25.1062 4.66669 24.8094 4.66669 24.5V3.49999C4.66669 3.19058 4.7896 2.89383 5.0084 2.67504C5.22719 2.45624 5.52393 2.33333 5.83335 2.33333H22.1667C22.4761 2.33333 22.7729 2.45624 22.9916 2.67504C23.2104 2.89383 23.3334 3.19058 23.3334 3.49999V6.99999H21V4.66666H7.00002V23.3333H21V21H23.3334V24.5C23.3334 24.8094 23.2104 25.1062 22.9916 25.325C22.7729 25.5437 22.4761 25.6667 22.1667 25.6667H5.83335ZM21 18.6667V15.1667H12.8334V12.8333H21V9.33333L26.8334 14L21 18.6667Z" fill="#7A7A7A"/>
</g>
<defs>
<clipPath id="clip0_3_258">
<rect width="28" height="28" fill="white"/>
</clipPath>
</defs>
</svg>
