<svg width="28" height="28" viewBox="0 0 28 28" fill="none" xmlns="http://www.w3.org/2000/svg">
<g clip-path="url(#clip0_3_233)">
<path d="M17.5 3.5C18.144 3.5 18.6667 4.02267 18.6667 4.66667V9.33333C18.6667 9.97733 18.144 10.5 17.5 10.5H15.1667V12.8333H19.8333C20.4773 12.8333 21 13.356 21 14V17.5H23.3333C23.9773 17.5 24.5 18.0227 24.5 18.6667V23.3333C24.5 23.9773 23.9773 24.5 23.3333 24.5H16.3333C15.6893 24.5 15.1667 23.9773 15.1667 23.3333V18.6667C15.1667 18.0227 15.6893 17.5 16.3333 17.5H18.6667V15.1667H9.33333V17.5H11.6667C12.3107 17.5 12.8333 18.0227 12.8333 18.6667V23.3333C12.8333 23.9773 12.3107 24.5 11.6667 24.5H4.66667C4.02267 24.5 3.5 23.9773 3.5 23.3333V18.6667C3.5 18.0227 4.02267 17.5 4.66667 17.5H7V14C7 13.356 7.52267 12.8333 8.16667 12.8333H12.8333V10.5H10.5C9.856 10.5 9.33333 9.97733 9.33333 9.33333V4.66667C9.33333 4.02267 9.856 3.5 10.5 3.5H17.5ZM10.5 19.8333H5.83333V22.1667H10.5V19.8333ZM22.1667 19.8333H17.5V22.1667H22.1667V19.8333ZM16.3333 5.83333H11.6667V8.16667H16.3333V5.83333Z" fill="#7A7A7A"/>
</g>
<defs>
<clipPath id="clip0_3_233">
<rect width="28" height="28" fill="white"/>
</clipPath>
</defs>
</svg>
