<svg width="28" height="28" viewBox="0 0 28 28" fill="none" xmlns="http://www.w3.org/2000/svg">
<g clip-path="url(#clip0_3_227)">
<path d="M23.3333 25.6667H4.66667C4.35725 25.6667 4.0605 25.5437 3.84171 25.325C3.62292 25.1062 3.5 24.8094 3.5 24.5V3.49999C3.5 3.19058 3.62292 2.89383 3.84171 2.67504C4.0605 2.45624 4.35725 2.33333 4.66667 2.33333H23.3333C23.6428 2.33333 23.9395 2.45624 24.1583 2.67504C24.3771 2.89383 24.5 3.19058 24.5 3.49999V24.5C24.5 24.8094 24.3771 25.1062 24.1583 25.325C23.9395 25.5437 23.6428 25.6667 23.3333 25.6667ZM22.1667 23.3333V4.66666H5.83333V23.3333H22.1667ZM10.5 6.99999V9.33333C10.5 10.2616 10.8687 11.1518 11.5251 11.8082C12.1815 12.4646 13.0717 12.8333 14 12.8333C14.9283 12.8333 15.8185 12.4646 16.4749 11.8082C17.1313 11.1518 17.5 10.2616 17.5 9.33333V6.99999H19.8333V9.33333C19.8333 10.8804 19.2188 12.3642 18.1248 13.4581C17.0308 14.5521 15.5471 15.1667 14 15.1667C12.4529 15.1667 10.9692 14.5521 9.87521 13.4581C8.78125 12.3642 8.16667 10.8804 8.16667 9.33333V6.99999H10.5Z" fill="#7A7A7A"/>
</g>
<defs>
<clipPath id="clip0_3_227">
<rect width="28" height="28" fill="white"/>
</clipPath>
</defs>
</svg>
